<svg width="19.000000" height="18.000000" viewBox="0 0 19 18" fill="none" xmlns="http://www.w3.org/2000/svg" xmlns:xlink="http://www.w3.org/1999/xlink">
	<desc>
			Created with Pixso.
	</desc>
	<defs/>
	<path id="Vector" d="M9 17.5C10.62 17.5 12.22 17.05 13.61 16.22C15.01 15.39 16.15 14.19 16.92 12.76C17.69 11.33 18.06 9.71 17.99 8.09C17.91 6.46 17.4 4.89 16.5 3.53L9.35 11.48C9.02 11.86 8.55 12.09 8.06 12.14C7.56 12.19 7.06 12.05 6.66 11.75L3.39 9.3C3.18 9.14 3.04 8.9 3.01 8.64C2.97 8.37 3.04 8.11 3.2 7.89C3.35 7.68 3.59 7.54 3.85 7.51C4.12 7.47 4.38 7.54 4.6 7.69L7.86 10.15L15.21 1.98C14.14 0.97 12.85 0.23 11.43 -0.17C10.02 -0.57 8.52 -0.61 7.09 -0.3C5.65 0.01 4.31 0.67 3.18 1.62C2.06 2.57 1.19 3.78 0.64 5.15C0.09 6.51 -0.11 7.99 0.05 9.46C0.2 10.92 0.72 12.32 1.54 13.54C2.37 14.76 3.48 15.76 4.78 16.44C6.08 17.13 7.52 17.5 9 17.5Z" fill="#FFFFFF" fill-opacity="1.000000" fill-rule="evenodd"/>
</svg>
