<svg width="30.000000" height="30.000000" viewBox="0 0 30 30" fill="none" xmlns="http://www.w3.org/2000/svg" xmlns:xlink="http://www.w3.org/1999/xlink">
	<desc>
			Created with Pixso.
	</desc>
	<defs/>
	<path id="Vector" d="M5.07 0L24.92 0C27.72 0 30 2.27 30 5.07L30 24.92C30 27.72 27.72 30 24.92 30L5.07 30C2.27 30 0 27.72 0 24.92L0 5.07C0 2.27 2.27 0 5.07 0Z" fill="#EB962D" fill-opacity="1.000000" fill-rule="evenodd"/>
	<path id="Vector" d="M22.53 10.26C22.49 10.11 22.43 10.06 22.33 10.01C22.13 9.91 21.76 10 21.76 10C21.76 10 8.53 13.39 7.75 13.83C7.58 13.92 7.52 13.98 7.49 14.05C7.33 14.4 7.71 14.6 7.71 14.6L10.91 15.99C10.91 15.99 11.03 16.02 11.07 15.99C11.87 15.59 19.07 11.94 19.48 11.83C19.54 11.82 19.58 11.85 19.57 11.89C19.36 12.42 12.96 17.11 12.96 17.11C12.96 17.11 12.93 17.14 12.92 17.17L12.91 17.16L12.29 20.41C12.29 20.41 12.07 21.4 13.17 20.49C13.94 19.85 14.68 19.32 15.05 19.07C16.11 19.96 17.25 20.94 17.73 21.44C17.97 21.69 18.19 21.75 18.37 21.76C18.88 21.79 19.07 21.25 19.07 21.25C19.07 21.25 22.28 12.09 22.48 10.84C22.5 10.72 22.52 10.64 22.53 10.56C22.54 10.44 22.54 10.32 22.53 10.26L22.53 10.26Z" fill="#FFFFFF" fill-opacity="1.000000" fill-rule="nonzero"/>
</svg>
