<svg width="30.000000" height="30.000000" viewBox="0 0 30 30" fill="none" xmlns="http://www.w3.org/2000/svg" xmlns:xlink="http://www.w3.org/1999/xlink">
	<desc>
			Created with Pixso.
	</desc>
	<defs/>
	<path id="Vector" d="M5.07 0L24.92 0C27.72 0 30 2.27 30 5.07L30 24.92C30 27.72 27.72 30 24.92 30L5.07 30C2.27 30 0 27.72 0 24.92L0 5.07C0 2.27 2.27 0 5.07 0Z" fill="#EB962D" fill-opacity="1.000000" fill-rule="evenodd"/>
	<path id="Vector" d="M22.17 18.25C21.18 17.22 20.13 16.63 19.44 16.31C20.09 15.93 21.23 15.17 22.2 13.8C23.18 12.42 23.52 11.08 23.66 10.34L20.54 10.34C20.35 10.95 19.99 11.88 19.24 12.82C18.11 14.23 16.73 14.84 16.05 15.09L16.04 10.34L13.12 10.34L13.15 18.72C12.36 18.45 11.54 18.01 10.83 17.29C9.93 16.37 9.55 15.32 9.22 14.4C8.76 13.11 8.54 11.76 8.58 10.37L5.66 10.3C5.62 12.05 5.89 13.76 6.48 15.39C6.87 16.47 7.4 17.95 8.75 19.33C10.59 21.2 12.86 21.81 14.45 21.99L16.07 22.17L16.06 18C16.6 18.05 17.59 18.23 18.59 18.9C20.23 20.01 20.72 21.67 20.84 22.14L24.34 22.14C24.12 21.32 23.57 19.72 22.17 18.25Z" fill="#FFFFFF" fill-opacity="1.000000" fill-rule="nonzero"/>
</svg>
