<svg width="30.000000" height="30.000000" viewBox="0 0 30 30" fill="none" xmlns="http://www.w3.org/2000/svg" xmlns:xlink="http://www.w3.org/1999/xlink">
	<desc>
			Created with Pixso.
	</desc>
	<defs/>
	<path id="Vector" d="M5.07 0L24.92 0C27.72 0 30 2.27 30 5.07L30 24.92C30 27.72 27.72 30 24.92 30L5.07 30C2.27 30 0 27.72 0 24.92L0 5.07C0 2.27 2.27 0 5.07 0Z" fill="#EB962D" fill-opacity="1.000000" fill-rule="evenodd"/>
	<path id="Vector" d="M22.91 10.25C21.54 7.82 18.95 6.25 16.13 6.16C13.27 6.07 10.33 7.51 8.82 10.27C7.45 12.79 7.56 15.87 9.1 18.33C8.89 19.45 8.69 20.57 8.48 21.69C9.68 21.5 10.88 21.3 12.08 21.11C12.51 21.34 15.38 22.84 18.74 21.6C19.16 21.44 22.4 20.18 23.56 16.62C24.62 13.38 23.16 10.68 22.91 10.25L22.91 10.25ZM22.39 16.14C21.45 19.16 18.73 20.26 18.38 20.4C15.24 21.61 12.53 19.95 12.24 19.77C11.51 19.92 10.78 20.08 10.05 20.24L10.4 18.01C8.9 15.94 8.71 13.2 9.89 10.96C11.14 8.6 13.61 7.37 16.01 7.41C18.39 7.45 20.59 8.75 21.77 10.78C21.98 11.14 23.25 13.4 22.39 16.15L22.39 16.14Z" fill="#FFFFFF" fill-opacity="1.000000" fill-rule="nonzero"/>
	<path id="Vector" d="M13.89 10.41C13.98 10.41 14.05 10.47 14.08 10.55C14.23 11 14.82 12.37 14.77 12.52C14.72 12.69 14.04 13.21 14.01 13.46C13.99 13.71 14.49 14.42 15.02 14.97C15.73 15.71 16.87 16.21 16.96 16.25C17.05 16.29 17.75 15.25 17.9 15.18C18.04 15.12 19.91 16.13 19.91 16.3C19.91 16.47 19.77 17.06 19.42 17.53C19.18 17.86 18.66 18 18.26 18.05C18.25 18.05 18.24 18.05 18.23 18.05C17.94 18 15.89 17.77 14.12 16.03C12.69 14.62 12.25 13.01 12.12 12.37C12.12 12.36 12.12 12.35 12.12 12.34C12.11 12.12 12.12 11.49 12.57 10.93C12.75 10.71 13.05 10.51 13.16 10.44C13.19 10.42 13.22 10.41 13.25 10.41L13.89 10.41L13.89 10.41Z" fill="#FFFFFF" fill-opacity="1.000000" fill-rule="nonzero"/>
</svg>
