<svg width="86.000000" height="86.000000" viewBox="0 0 86 86" fill="none" xmlns="http://www.w3.org/2000/svg" xmlns:xlink="http://www.w3.org/1999/xlink">
	<desc>
			Created with Pixso.
	</desc>
	<defs/>
	<circle id="Ellipse 14" cx="43.000000" cy="43.000000" r="43.000000" fill="#961921" fill-opacity="1.000000"/>
	<path id="Vector" d="M41.16 28.58C41.61 28.2 42.17 28 42.75 28C43.33 28 43.9 28.2 44.34 28.58L56.64 39.01C56.91 39.24 57.13 39.53 57.28 39.85C57.43 40.18 57.51 40.53 57.51 40.89L57.51 56.31C57.51 56.96 57.25 57.58 56.79 58.04C56.33 58.51 55.7 58.77 55.05 58.77L45.62 58.77C45.3 58.77 44.98 58.64 44.75 58.4C44.52 58.17 44.39 57.86 44.39 57.54L44.39 47.29L41.11 47.29L41.11 57.54C41.11 57.86 40.98 58.17 40.75 58.4C40.52 58.64 40.21 58.77 39.88 58.77L30.46 58.77C29.8 58.77 29.18 58.51 28.72 58.04C28.25 57.58 28 56.96 28 56.31L28 40.89C28 40.17 28.31 39.48 28.86 39.01L41.16 28.58ZM42.75 30.45L30.46 40.89L30.46 56.31L38.65 56.31L38.65 46.06C38.65 45.73 38.78 45.42 39.01 45.19C39.24 44.96 39.56 44.83 39.88 44.83L45.62 44.83C45.95 44.83 46.26 44.96 46.49 45.19C46.72 45.42 46.85 45.73 46.85 46.06L46.85 56.31L55.05 56.31L55.05 40.89L42.75 30.45Z" fill="#FFFFFF" fill-opacity="1.000000" fill-rule="nonzero"/>
</svg>
