<svg width="86.000000" height="86.000000" viewBox="0 0 86 86" fill="none" xmlns="http://www.w3.org/2000/svg" xmlns:xlink="http://www.w3.org/1999/xlink">
	<desc>
			Created with Pixso.
	</desc>
	<defs/>
	<circle id="Ellipse 14" cx="43.000000" cy="43.000000" r="43.000000" fill="#961921" fill-opacity="1.000000"/>
	<path id="Vector" d="M29.05 30.05L29.05 29C28.77 29 28.5 29.11 28.3 29.3C28.11 29.5 28 29.77 28 30.05L29.05 30.05ZM44.57 30.05L45.62 30.05C45.62 29.77 45.51 29.5 45.31 29.3C45.12 29.11 44.85 29 44.57 29L44.57 30.05ZM44.57 38.51L44.57 37.46C44.29 37.46 44.02 37.57 43.82 37.77C43.62 37.97 43.51 38.23 43.51 38.51L44.57 38.51ZM29.05 31.11L44.57 31.11L44.57 29L29.05 29L29.05 31.11ZM43.51 30.05L43.51 52.62L45.62 52.62L45.62 30.05L43.51 30.05ZM30.11 49.8L30.11 30.05L28 30.05L28 49.8L30.11 49.8ZM44.57 39.57L51.62 39.57L51.62 37.46L44.57 37.46L44.57 39.57ZM56.2 44.16L56.2 49.8L58.32 49.8L58.32 44.16L56.2 44.16ZM45.62 52.62L45.62 38.51L43.51 38.51L43.51 52.62L45.62 52.62ZM52.86 53.86C52.7 54.03 52.51 54.16 52.29 54.25C52.08 54.34 51.85 54.38 51.62 54.38C51.39 54.38 51.16 54.34 50.94 54.25C50.73 54.16 50.53 54.03 50.37 53.86L48.88 55.36C49.6 56.09 50.59 56.5 51.62 56.5C52.65 56.5 53.63 56.09 54.36 55.36L52.86 53.86ZM50.37 51.37C50.53 51.21 50.73 51.08 50.94 50.99C51.16 50.9 51.39 50.85 51.62 50.85C51.85 50.85 52.08 50.9 52.29 50.99C52.51 51.08 52.7 51.21 52.86 51.37L54.36 49.88C53.63 49.15 52.65 48.74 51.62 48.74C50.59 48.74 49.6 49.15 48.87 49.88L50.37 51.37ZM35.94 53.86C35.78 54.03 35.58 54.16 35.37 54.25C35.15 54.34 34.93 54.38 34.69 54.38C34.46 54.38 34.23 54.34 34.02 54.25C33.81 54.16 33.61 54.03 33.45 53.86L31.95 55.36C32.68 56.09 33.67 56.5 34.69 56.5C35.72 56.5 36.71 56.09 37.44 55.36L35.94 53.86ZM33.45 51.37C33.61 51.21 33.81 51.08 34.02 50.99C34.23 50.9 34.46 50.85 34.69 50.85C34.93 50.85 35.15 50.9 35.37 50.99C35.58 51.08 35.78 51.21 35.94 51.37L37.44 49.88C36.71 49.15 35.72 48.74 34.69 48.74C33.66 48.74 32.68 49.15 31.95 49.88L33.45 51.37ZM52.86 51.37C53.21 51.71 53.38 52.16 53.38 52.62L55.5 52.62C55.5 51.63 55.12 50.63 54.36 49.87L52.86 51.37ZM53.38 52.62C53.38 53.07 53.21 53.52 52.86 53.86L54.36 55.36C54.72 55 55.01 54.57 55.2 54.1C55.4 53.63 55.5 53.13 55.5 52.62L53.38 52.62ZM48.8 51.56L44.57 51.56L44.57 53.68L48.8 53.68L48.8 51.56ZM50.37 53.86C50.21 53.7 50.08 53.51 49.99 53.29C49.9 53.08 49.85 52.85 49.85 52.62L47.74 52.62C47.74 53.61 48.12 54.6 48.87 55.36L50.37 53.86ZM49.85 52.62C49.85 52.16 50.03 51.71 50.37 51.37L48.87 49.88C48.51 50.24 48.23 50.66 48.03 51.13C47.84 51.6 47.74 52.11 47.74 52.62L49.85 52.62ZM33.45 53.86C33.28 53.7 33.15 53.51 33.06 53.29C32.98 53.08 32.93 52.85 32.93 52.62L30.82 52.62C30.82 53.61 31.2 54.6 31.95 55.36L33.45 53.86ZM32.93 52.62C32.93 52.16 33.1 51.71 33.45 51.37L31.95 49.88C31.59 50.24 31.31 50.66 31.11 51.13C30.92 51.6 30.82 52.11 30.82 52.62L32.93 52.62ZM44.57 51.56L37.51 51.56L37.51 53.68L44.57 53.68L44.57 51.56ZM35.94 51.37C36.28 51.71 36.46 52.16 36.46 52.62L38.57 52.62C38.57 51.63 38.19 50.63 37.44 49.87L35.94 51.37ZM36.46 52.62C36.46 53.07 36.28 53.52 35.94 53.86L37.44 55.36C37.8 55 38.08 54.57 38.28 54.1C38.47 53.63 38.57 53.13 38.57 52.62L36.46 52.62ZM56.2 49.8C56.2 50.77 55.41 51.56 54.44 51.56L54.44 53.68C55.47 53.68 56.45 53.27 57.18 52.54C57.91 51.81 58.32 50.83 58.32 49.8L56.2 49.8ZM51.62 39.57C52.83 39.57 54 40.06 54.86 40.91C55.72 41.77 56.2 42.94 56.2 44.16L58.32 44.16C58.32 42.38 57.61 40.68 56.35 39.42C55.1 38.16 53.39 37.46 51.62 37.46L51.62 39.57ZM28 49.8C28 50.83 28.4 51.81 29.13 52.54C29.86 53.27 30.84 53.68 31.87 53.68L31.87 51.56C30.9 51.56 30.11 50.77 30.11 49.8L28 49.8Z" fill="#FFFFFF" fill-opacity="1.000000" fill-rule="nonzero"/>
</svg>
