<svg width="86.000000" height="86.000000" viewBox="0 0 86 86" fill="none" xmlns="http://www.w3.org/2000/svg" xmlns:xlink="http://www.w3.org/1999/xlink">
	<desc>
			Created with Pixso.
	</desc>
	<defs/>
	<circle id="Ellipse 14" cx="42.500000" cy="43.000000" r="43.000000" fill="#961921" fill-opacity="1.000000"/>
	<path id="Vector" d="M42 28C38.93 28 35.93 28.9 33.38 30.61C30.83 32.31 28.85 34.73 27.67 37.56C26.5 40.4 26.2 43.51 26.79 46.52C27.39 49.53 28.87 52.29 31.04 54.46C33.2 56.62 35.96 58.1 38.97 58.7C41.98 59.3 45.09 58.99 47.93 57.82C50.76 56.64 53.18 54.66 54.88 52.11C56.59 49.56 57.5 46.56 57.5 43.5C57.49 39.39 55.86 35.45 52.95 32.54C50.04 29.63 46.1 28 42 28ZM42 56.61C39.4 56.61 36.87 55.84 34.71 54.4C32.55 52.96 30.87 50.91 29.88 48.51C28.89 46.12 28.63 43.48 29.13 40.94C29.64 38.39 30.89 36.06 32.72 34.22C34.56 32.39 36.89 31.14 39.44 30.63C41.98 30.13 44.62 30.39 47.01 31.38C49.41 32.37 51.46 34.05 52.9 36.21C54.34 38.37 55.11 40.9 55.11 43.5C55.11 46.97 53.72 50.31 51.26 52.76C48.81 55.22 45.47 56.61 42 56.61ZM51.53 43.5C51.53 43.81 51.41 44.11 51.18 44.34C50.96 44.56 50.66 44.69 50.34 44.69L42 44.69C41.68 44.69 41.38 44.56 41.15 44.34C40.93 44.11 40.8 43.81 40.8 43.5L40.8 35.15C40.8 34.83 40.93 34.53 41.15 34.31C41.38 34.08 41.68 33.96 42 33.96C42.31 33.96 42.61 34.08 42.84 34.31C43.06 34.53 43.19 34.83 43.19 35.15L43.19 42.3L50.34 42.3C50.66 42.3 50.96 42.43 51.18 42.65C51.41 42.88 51.53 43.18 51.53 43.5Z" fill="#FFFFFF" fill-opacity="1.000000" fill-rule="nonzero"/>
</svg>
