<svg width="86.000000" height="86.000000" viewBox="0 0 86 86" fill="none" xmlns="http://www.w3.org/2000/svg" xmlns:xlink="http://www.w3.org/1999/xlink">
	<desc>
			Created with Pixso.
	</desc>
	<defs/>
	<circle id="Ellipse 14" cx="42.500000" cy="43.000000" r="43.000000" fill="#961921" fill-opacity="1.000000"/>
	<path id="Vector" d="M42.62 29.17L43.08 28.09C42.93 28.03 42.78 28 42.62 28C42.46 28 42.3 28.03 42.16 28.09L42.62 29.17ZM42.62 57.32L42.04 58.34C42.21 58.44 42.41 58.5 42.62 58.5C42.82 58.5 43.02 58.44 43.2 58.34L42.62 57.32ZM42.15 28.09L32.16 32.38L33.08 34.53L43.08 30.25L42.15 28.09ZM30.5 34.89L30.5 45.62L32.84 45.62L32.84 34.89L30.5 34.89ZM35.81 54.79L42.04 58.34L43.2 56.3L36.98 52.75L35.81 54.79ZM43.2 58.34L49.42 54.79L48.25 52.75L42.04 56.3L43.2 58.34ZM54.74 45.62L54.74 34.89L52.39 34.89L52.39 45.62L54.74 45.62ZM53.08 32.38L43.08 28.09L42.16 30.25L52.16 34.53L53.08 32.38ZM54.74 34.89C54.74 33.8 54.09 32.81 53.08 32.38L52.16 34.53C52.23 34.56 52.29 34.61 52.33 34.68C52.37 34.74 52.39 34.82 52.39 34.89L54.74 34.89ZM49.42 54.79C51.04 53.86 52.38 52.53 53.31 50.92C54.25 49.31 54.74 47.48 54.74 45.62L52.39 45.62C52.39 47.07 52.01 48.49 51.28 49.74C50.56 50.99 49.51 52.03 48.25 52.75L49.42 54.79ZM30.5 45.62C30.5 47.48 30.99 49.31 31.92 50.92C32.86 52.53 34.2 53.86 35.81 54.79L36.98 52.75C35.72 52.03 34.68 50.99 33.95 49.74C33.22 48.49 32.84 47.07 32.84 45.62L30.5 45.62ZM32.15 32.38C31.66 32.59 31.24 32.94 30.95 33.38C30.65 33.83 30.5 34.36 30.5 34.89L32.84 34.89C32.84 34.74 32.94 34.59 33.08 34.53L32.15 32.38Z" fill="#FFFFFF" fill-opacity="1.000000" fill-rule="nonzero"/>
</svg>
