<svg width="86.000000" height="86.000000" viewBox="0 0 86 86" fill="none" xmlns="http://www.w3.org/2000/svg" xmlns:xlink="http://www.w3.org/1999/xlink">
	<desc>
			Created with Pixso.
	</desc>
	<defs/>
	<circle id="Ellipse 14" cx="43.000000" cy="43.000000" r="43.000000" fill="#961921" fill-opacity="1.000000"/>
	<path id="Vector" d="M34 28L34 43L31 43L31 46L34 46L34 49L31 49L31 52L34 52L34 58L37 58L37 52L44.5 52L44.5 49L37 49L37 46L46 46C50.95 46 55 41.95 55 37C55 32.05 50.95 28 46 28L34 28ZM37 31L46 31C49.32 31 52 33.67 52 37C52 40.32 49.32 43 46 43L37 43L37 31Z" fill="#FFFFFF" fill-opacity="1.000000" fill-rule="nonzero"/>
</svg>
