<svg width="86.000000" height="86.000000" viewBox="0 0 86 86" fill="none" xmlns="http://www.w3.org/2000/svg" xmlns:xlink="http://www.w3.org/1999/xlink">
	<desc>
			Created with Pixso.
	</desc>
	<defs/>
	<circle id="Ellipse 14" cx="43.000000" cy="43.000000" r="43.000000" fill="#961921" fill-opacity="1.000000"/>
	<path id="Vector" d="M46.01 35.89C46.01 36.31 46.18 36.7 46.47 37L48.99 39.52C49.29 39.81 49.68 39.98 50.1 39.98C50.51 39.98 50.91 39.81 51.2 39.52L57.15 33.57C57.95 35.33 58.19 37.28 57.84 39.18C57.5 41.07 56.58 42.81 55.22 44.17C53.86 45.54 52.12 46.45 50.22 46.8C48.33 47.14 46.37 46.9 44.62 46.11L33.71 57.01C33.08 57.64 32.23 58 31.34 58C30.46 58 29.6 57.64 28.98 57.01C28.35 56.39 28 55.53 28 54.65C28 53.76 28.35 52.91 28.98 52.28L39.88 41.37C39.09 39.62 38.85 37.66 39.19 35.77C39.54 33.87 40.45 32.13 41.82 30.77C43.18 29.41 44.92 28.49 46.81 28.15C48.71 27.8 50.66 28.04 52.42 28.84L46.48 34.77L46.47 34.79C46.18 35.08 46.01 35.48 46.01 35.89Z" stroke="#FFFFFF" stroke-opacity="1.000000" stroke-width="2.000000" stroke-linejoin="round"/>
</svg>
