<svg width="26.000000" height="26.000000" viewBox="0 0 26 26" fill="none" xmlns="http://www.w3.org/2000/svg" xmlns:xlink="http://www.w3.org/1999/xlink">
	<desc>
			Created with Pixso.
	</desc>
	<defs/>
	<path id="Vector" d="M0.71 12.02C0.81 11.92 0.92 11.85 1.04 11.8C1.16 11.75 1.29 11.73 1.42 11.73L24.01 11.72C24.58 11.72 25.01 12.16 25.01 12.72C25.01 13.29 24.58 13.73 24.01 13.73L1.42 13.71C0.86 13.71 0.42 13.27 0.42 12.71C0.42 12.43 0.53 12.17 0.7 12L0.71 12.02Z" fill="#2F2B29" fill-opacity="1.000000" fill-rule="nonzero"/>
	<path id="Vector" d="M12.02 0.72C12.11 0.62 12.22 0.55 12.34 0.5C12.46 0.45 12.59 0.43 12.72 0.43C13.29 0.43 13.72 0.87 13.72 1.43L13.7 24.01C13.7 24.58 13.26 25.01 12.7 25.01C12.13 25.01 11.69 24.58 11.69 24.01L11.73 1.42C11.73 1.14 11.85 0.89 12.02 0.72Z" fill="#2F2B29" fill-opacity="1.000000" fill-rule="nonzero"/>
</svg>
