<svg width="18.000000" height="18.000000" viewBox="0 0 18 18" fill="none" xmlns="http://www.w3.org/2000/svg" xmlns:xlink="http://www.w3.org/1999/xlink">
	<desc>
			Created with Pixso.
	</desc>
	<defs/>
	<path id="Union" d="M0.0195312 16.9811C0.0185547 16.8501 0.0439453 16.7202 0.0957031 16.5999C0.147461 16.4794 0.223633 16.3711 0.319336 16.2819L7.59375 8.9989L0.319336 1.69812C0.120117 1.49829 0.0205078 1.23865 0.0205078 0.998901C0.0185547 0.86792 0.0449219 0.738037 0.0957031 0.617554C0.147461 0.497192 0.223633 0.388916 0.319336 0.299683C0.71875 -0.0998535 1.33789 -0.0998535 1.73633 0.299683L9.00586 7.58594L16.2842 0.299683C16.6826 -0.0998535 17.3018 -0.0998535 17.7002 0.299683C18.0996 0.699219 18.0996 1.31848 17.7002 1.71814L10.4121 8.99609L17.6807 16.2819C18.0801 16.6815 18.0801 17.3008 17.6807 17.7003C17.2822 18.0999 16.6631 18.0999 16.2646 17.7003L8.99805 10.4082L1.71582 17.6803C1.31738 18.08 0.698242 18.08 0.299805 17.6803C0.0996094 17.4806 0 17.2208 0 16.9811L0.0195312 16.9811Z" clip-rule="evenodd" fill="#2F2B29" fill-opacity="1.000000" fill-rule="evenodd"/>
</svg>
