<svg width="38.000000" height="38.000000" viewBox="0 0 38 38" fill="none" xmlns="http://www.w3.org/2000/svg" xmlns:xlink="http://www.w3.org/1999/xlink">
	<desc>
			Created with Pixso.
	</desc>
	<defs>
		<filter id="filter_204_3137_dd" x="0.000000" y="0.000000" width="38.000000" height="38.000000" filterUnits="userSpaceOnUse" color-interpolation-filters="sRGB">
			<feFlood flood-opacity="0" result="BackgroundImageFix"/>
			<feColorMatrix in="SourceAlpha" type="matrix" values="0 0 0 0 0 0 0 0 0 0 0 0 0 0 0 0 0 0 127 0" result="hardAlpha"/>
			<feOffset dx="0" dy="4"/>
			<feGaussianBlur stdDeviation="1.33333"/>
			<feComposite in2="hardAlpha" operator="out" k2="-1" k3="1"/>
			<feColorMatrix type="matrix" values="0 0 0 0 0 0 0 0 0 0 0 0 0 0 0 0 0 0 0.25 0"/>
			<feBlend mode="normal" in2="BackgroundImageFix" result="effect_dropShadow_1"/>
			<feBlend mode="normal" in="SourceGraphic" in2="effect_dropShadow_1" result="shape"/>
		</filter>
		<clipPath id="clip204_3138">
			<rect id="heroicons:envelope" width="22.000000" height="22.000000" transform="translate(8.000000 4.000000)" fill="white" fill-opacity="0"/>
		</clipPath>
		<clipPath id="clip204_3137">
			<rect id="Frame 88" rx="15.000000" width="30.000000" height="30.000000" transform="translate(4.000000 0.000000)" fill="white" fill-opacity="0"/>
		</clipPath>
	</defs>
	<g filter="url(#filter_204_3137_dd)">
		<rect id="Frame 88" rx="15.000000" width="30.000000" height="30.000000" transform="translate(4.000000 0.000000)" fill="#961921" fill-opacity="1.000000"/>
		<g clip-path="url(#clip204_3137)">
			<rect id="heroicons:envelope" width="22.000000" height="22.000000" transform="translate(8.000000 4.000000)" fill="#FFFFFF" fill-opacity="0"/>
			<g clip-path="url(#clip204_3138)">
				<path id="Vector" d="M27 19.2C27 19.67 26.8 20.13 26.45 20.47C26.11 20.81 25.64 21 25.15 21L12.84 21C12.35 21 11.88 20.81 11.54 20.47C11.19 20.13 11 19.67 11 19.2L11 10.8C11 10.32 11.19 9.86 11.54 9.52C11.88 9.18 12.35 9 12.84 9L25.15 9C25.64 9 26.11 9.18 26.45 9.52C26.8 9.86 27 10.32 27 10.8L27 19.2ZM27 10.8L27 10.99C27 11.3 26.91 11.6 26.76 11.87C26.61 12.14 26.39 12.36 26.12 12.52L19.96 16.21C19.67 16.39 19.34 16.48 19 16.48C18.65 16.48 18.32 16.39 18.03 16.21L11.87 12.52C11.6 12.36 11.38 12.14 11.23 11.87C11.08 11.6 11 11.3 11 10.99L11 10.8" stroke="#FFFFFF" stroke-opacity="1.000000" stroke-width="1.000000" stroke-linejoin="round"/>
			</g>
		</g>
	</g>
</svg>
