<svg width="30.000000" height="30.000000" viewBox="0 0 30 30" fill="none" xmlns="http://www.w3.org/2000/svg" xmlns:xlink="http://www.w3.org/1999/xlink">
	<desc>
			Created with Pixso.
	</desc>
	<defs>
		<clipPath id="clip204_3135">
			<rect id="foundation:telephone" width="22.000000" height="22.000000" transform="translate(4.000000 4.000000)" fill="white" fill-opacity="0"/>
		</clipPath>
		<clipPath id="clip204_3134">
			<rect id="Frame 87" rx="15.000000" width="30.000000" height="30.000000" fill="white" fill-opacity="0"/>
		</clipPath>
	</defs>
	<rect id="Frame 87" rx="15.000000" width="30.000000" height="30.000000" fill="#961921" fill-opacity="1.000000"/>
	<g clip-path="url(#clip204_3134)">
		<rect id="foundation:telephone" width="22.000000" height="22.000000" transform="translate(4.000000 4.000000)" fill="#FFFFFF" fill-opacity="0"/>
		<g clip-path="url(#clip204_3135)">
			<path id="Vector" d="M22.69 19.45C22.65 19.22 22.51 19.03 22.29 18.91L19.14 17.05L19.11 17.04C18.98 16.97 18.84 16.94 18.69 16.94C18.42 16.94 18.17 17.04 18 17.21L17.07 18.15C17.03 18.18 16.9 18.24 16.86 18.24C16.85 18.24 15.77 18.16 13.8 16.19C11.83 14.22 11.75 13.14 11.75 13.14C11.75 13.09 11.8 12.96 11.84 12.92L12.63 12.12C12.91 11.84 13 11.38 12.83 11.02L11.08 7.72C10.95 7.46 10.7 7.3 10.43 7.3C10.23 7.3 10.05 7.38 9.9 7.52L7.74 9.68C7.53 9.89 7.35 10.25 7.31 10.54C7.29 10.68 6.91 13.99 11.45 18.54C15.31 22.39 18.32 22.69 19.15 22.69C19.25 22.69 19.35 22.69 19.45 22.68C19.74 22.64 20.1 22.46 20.31 22.25L22.47 20.09C22.64 19.91 22.72 19.68 22.69 19.45Z" fill="#FFFFFF" fill-opacity="1.000000" fill-rule="nonzero"/>
		</g>
	</g>
</svg>
