<svg width="30.000000" height="30.000000" viewBox="0 0 30 30" fill="none" xmlns="http://www.w3.org/2000/svg" xmlns:xlink="http://www.w3.org/1999/xlink">
	<desc>
			Created with Pixso.
	</desc>
	<defs>
		<clipPath id="clip204_3141">
			<rect id="ph:clock" width="22.000000" height="22.000000" transform="translate(4.000000 4.000000)" fill="white" fill-opacity="0"/>
		</clipPath>
		<clipPath id="clip204_3140">
			<rect id="Frame 89" rx="15.000000" width="30.000000" height="30.000000" fill="white" fill-opacity="0"/>
		</clipPath>
	</defs>
	<rect id="Frame 89" rx="15.000000" width="30.000000" height="30.000000" fill="#961921" fill-opacity="1.000000"/>
	<g clip-path="url(#clip204_3140)">
		<rect id="ph:clock" width="22.000000" height="22.000000" transform="translate(4.000000 4.000000)" fill="#FFFFFF" fill-opacity="0"/>
		<g clip-path="url(#clip204_3141)">
			<path id="Vector" d="M15 6.06C13.23 6.06 11.5 6.58 10.03 7.56C8.56 8.55 7.41 9.94 6.74 11.57C6.06 13.21 5.88 15.01 6.23 16.74C6.57 18.47 7.42 20.06 8.67 21.31C9.92 22.56 11.52 23.42 13.25 23.76C14.99 24.11 16.78 23.93 18.41 23.25C20.05 22.58 21.44 21.43 22.43 19.96C23.41 18.49 23.93 16.76 23.93 15C23.93 12.63 22.99 10.35 21.31 8.68C19.64 7 17.36 6.06 15 6.06ZM15 22.56C13.5 22.56 12.04 22.11 10.79 21.28C9.55 20.45 8.58 19.27 8.01 17.89C7.44 16.51 7.29 14.99 7.58 13.52C7.87 12.05 8.59 10.71 9.65 9.65C10.71 8.59 12.05 7.87 13.52 7.58C14.99 7.29 16.51 7.44 17.89 8.01C19.27 8.58 20.45 9.55 21.28 10.79C22.11 12.04 22.56 13.5 22.56 15C22.56 17 21.76 18.92 20.34 20.34C18.92 21.76 17 22.56 15 22.56ZM20.5 15C20.5 15.18 20.42 15.35 20.29 15.48C20.16 15.61 19.99 15.68 19.81 15.68L15 15.68C14.81 15.68 14.64 15.61 14.51 15.48C14.38 15.35 14.31 15.18 14.31 15L14.31 10.18C14.31 10 14.38 9.83 14.51 9.7C14.64 9.57 14.81 9.5 15 9.5C15.18 9.5 15.35 9.57 15.48 9.7C15.61 9.83 15.68 10 15.68 10.18L15.68 14.31L19.81 14.31C19.99 14.31 20.16 14.38 20.29 14.51C20.42 14.64 20.5 14.81 20.5 15Z" fill="#FFFFFF" fill-opacity="1.000000" fill-rule="nonzero"/>
		</g>
	</g>
</svg>
