<svg width="50.000000" height="50.000000" viewBox="0 0 50 50" fill="none" xmlns="http://www.w3.org/2000/svg" xmlns:xlink="http://www.w3.org/1999/xlink">
	<desc>
			Created with Pixso.
	</desc>
	<defs/>
	<circle id="Ellipse 11" cx="25.000000" cy="25.000000" r="25.000000" fill="#961921" fill-opacity="1.000000"/>
	<path id="Vector" d="M27.71 16L20.28 16L20.28 26L18 26L18 28.22L20.28 28.22L20.28 30.44L18 30.44L18 32.66L20.28 32.66L20.28 36L22.57 36L22.57 32.66L27.14 32.66L27.14 30.44L22.57 30.44L22.57 28.22L27.71 28.22C31.18 28.22 34 25.48 34 22.11C34 18.73 31.18 16 27.71 16ZM27.71 26L22.57 26L22.57 18.22L27.71 18.22C29.91 18.22 31.71 19.96 31.71 22.11C31.71 24.25 29.91 26 27.71 26Z" fill="#FFFFFF" fill-opacity="1.000000" fill-rule="nonzero"/>
</svg>
