<svg width="50.000000" height="50.000000" viewBox="0 0 50 50" fill="none" xmlns="http://www.w3.org/2000/svg" xmlns:xlink="http://www.w3.org/1999/xlink">
	<desc>
			Created with Pixso.
	</desc>
	<defs/>
	<circle id="Ellipse 12" cx="25.000000" cy="25.000000" r="25.000000" fill="#961921" fill-opacity="1.000000"/>
	<path id="Vector" d="M25 14C22.82 14 20.69 14.64 18.88 15.85C17.07 17.06 15.66 18.78 14.83 20.79C14 22.8 13.78 25.01 14.21 27.14C14.63 29.27 15.68 31.23 17.22 32.77C18.76 34.31 20.72 35.36 22.85 35.78C24.98 36.21 27.19 35.99 29.2 35.16C31.21 34.33 32.93 32.92 34.14 31.11C35.35 29.3 36 27.17 36 25C35.99 22.08 34.83 19.28 32.77 17.22C30.71 15.16 27.91 14 25 14ZM25 34.3C23.15 34.3 21.35 33.76 19.82 32.73C18.29 31.71 17.1 30.26 16.4 28.56C15.69 26.86 15.51 24.98 15.87 23.18C16.23 21.37 17.11 19.72 18.41 18.41C19.72 17.11 21.37 16.23 23.18 15.87C24.98 15.51 26.86 15.69 28.56 16.4C30.26 17.1 31.71 18.29 32.73 19.82C33.76 21.35 34.3 23.15 34.3 25C34.3 27.46 33.32 29.83 31.57 31.57C29.83 33.32 27.46 34.3 25 34.3ZM31.76 25C31.76 25.22 31.68 25.43 31.52 25.59C31.36 25.75 31.14 25.84 30.92 25.84L25 25.84C24.77 25.84 24.56 25.75 24.4 25.59C24.24 25.43 24.15 25.22 24.15 25L24.15 19.07C24.15 18.85 24.24 18.63 24.4 18.47C24.56 18.31 24.77 18.23 25 18.23C25.22 18.23 25.43 18.31 25.59 18.47C25.75 18.63 25.84 18.85 25.84 19.07L25.84 24.15L30.92 24.15C31.14 24.15 31.36 24.24 31.52 24.4C31.68 24.56 31.76 24.77 31.76 25Z" fill="#FFFFFF" fill-opacity="1.000000" fill-rule="nonzero"/>
</svg>
