<svg width="50.000000" height="50.000000" viewBox="0 0 50 50" fill="none" xmlns="http://www.w3.org/2000/svg" xmlns:xlink="http://www.w3.org/1999/xlink">
	<desc>
			Created with Pixso.
	</desc>
	<defs>
		<clipPath id="clip222_4461">
			<rect id="ri:thumb-up-line" width="24.000000" height="24.000000" transform="translate(13.000000 13.000000)" fill="white" fill-opacity="0"/>
		</clipPath>
	</defs>
	<circle id="Ellipse 13" cx="25.000000" cy="25.000000" r="25.000000" fill="#961921" fill-opacity="1.000000"/>
	<rect id="ri:thumb-up-line" width="24.000000" height="24.000000" transform="translate(13.000000 13.000000)" fill="#FFFFFF" fill-opacity="0"/>
	<g clip-path="url(#clip222_4461)">
		<path id="Vector" d="M27.6 21L34 21C34.53 21 35.03 21.21 35.41 21.58C35.78 21.96 36 22.46 36 23L36 25.1C36 25.36 35.94 25.62 35.85 25.86L32.75 33.38C32.67 33.56 32.55 33.72 32.38 33.83C32.22 33.94 32.02 34 31.83 34L15 34C14.73 34 14.48 33.89 14.29 33.7C14.1 33.52 14 33.26 14 33L14 23C14 22.73 14.1 22.48 14.29 22.29C14.48 22.1 14.73 22 15 22L18.48 22C18.64 21.99 18.79 21.96 18.94 21.88C19.08 21.81 19.2 21.7 19.29 21.57L24.75 13.85C24.82 13.75 24.92 13.68 25.03 13.65C25.15 13.62 25.27 13.63 25.38 13.69L27.19 14.59C27.7 14.85 28.11 15.27 28.35 15.79C28.59 16.31 28.64 16.89 28.5 17.45L27.6 21ZM20 23.58L20 32L31.16 32L34 25.1L34 23L27.6 23C27.29 22.99 26.99 22.93 26.72 22.79C26.44 22.66 26.2 22.46 26.02 22.22C25.83 21.98 25.7 21.7 25.64 21.4C25.58 21.11 25.58 20.8 25.66 20.5L26.56 16.95C26.59 16.84 26.58 16.73 26.53 16.62C26.48 16.52 26.4 16.43 26.3 16.38L25.64 16.05L20.93 22.73C20.68 23.08 20.36 23.37 20 23.58ZM18 24L16 24L16 32L18 32L18 24Z" fill="#FFFFFF" fill-opacity="1.000000" fill-rule="nonzero"/>
	</g>
</svg>
