<svg width="24.000000" height="24.000000" viewBox="0 0 24 24" fill="none" xmlns="http://www.w3.org/2000/svg" xmlns:xlink="http://www.w3.org/1999/xlink">
	<desc>
			Created with Pixso.
	</desc>
	<defs>
		<clipPath id="clip222_4430">
			<rect id="lets-icons:done-ring-round-fill" width="24.000000" height="24.000000" transform="translate(0.000000 -0.500000)" fill="white" fill-opacity="0"/>
		</clipPath>
	</defs>
	<rect id="lets-icons:done-ring-round-fill" width="24.000000" height="24.000000" transform="translate(0.000000 -0.500000)" fill="#FFFFFF" fill-opacity="0"/>
	<g clip-path="url(#clip222_4430)">
		<path id="Vector" d="M12 20.5C13.62 20.5 15.22 20.05 16.61 19.22C18.01 18.39 19.15 17.19 19.92 15.76C20.69 14.33 21.06 12.71 20.99 11.09C20.91 9.46 20.4 7.89 19.5 6.53L12.35 14.48C12.02 14.86 11.55 15.09 11.06 15.14C10.56 15.19 10.06 15.05 9.66 14.75L6.39 12.3C6.18 12.14 6.04 11.9 6.01 11.64C5.97 11.37 6.04 11.11 6.2 10.89C6.35 10.68 6.59 10.54 6.85 10.51C7.12 10.47 7.38 10.54 7.6 10.7L10.86 13.15L18.21 4.98C17.14 3.97 15.85 3.23 14.43 2.83C13.02 2.43 11.52 2.39 10.09 2.7C8.65 3.01 7.31 3.67 6.18 4.62C5.06 5.57 4.19 6.78 3.64 8.15C3.09 9.51 2.89 10.99 3.05 12.46C3.2 13.92 3.72 15.32 4.54 16.54C5.37 17.76 6.48 18.76 7.78 19.44C9.08 20.13 10.52 20.5 12 20.5Z" fill="#FFFFFF" fill-opacity="1.000000" fill-rule="evenodd"/>
	</g>
</svg>
