<svg width="12.000000" height="12.000000" viewBox="0 0 12 12" fill="none" xmlns="http://www.w3.org/2000/svg" xmlns:xlink="http://www.w3.org/1999/xlink">
	<desc>
			Created with Pixso.
	</desc>
	<defs/>
	<path id="Vector" d="M6 12C7.08 12 8.14 11.7 9.07 11.15C10 10.59 10.77 9.79 11.28 8.84C11.79 7.88 12.04 6.81 11.99 5.72C11.94 4.64 11.6 3.59 11 2.69L6.23 7.99C6.01 8.24 5.7 8.39 5.37 8.42C5.04 8.46 4.71 8.36 4.44 8.16L2.26 6.53C2.12 6.42 2.03 6.26 2 6.09C1.98 5.91 2.02 5.74 2.13 5.6C2.23 5.45 2.39 5.36 2.57 5.34C2.74 5.31 2.92 5.36 3.06 5.46L5.24 7.1L10.14 1.65C9.43 0.98 8.56 0.48 7.62 0.22C6.67 -0.05 5.68 -0.08 4.72 0.13C3.76 0.34 2.87 0.78 2.12 1.41C1.37 2.05 0.79 2.85 0.43 3.76C0.06 4.67 -0.08 5.66 0.03 6.64C0.13 7.61 0.48 8.55 1.03 9.36C1.58 10.17 2.32 10.84 3.18 11.29C4.05 11.75 5.01 12 6 12Z" fill="#EB962D" fill-opacity="1.000000" fill-rule="evenodd"/>
</svg>
